<?xml version="1.0" standalone="no"?>
<!DOCTYPE svg PUBLIC "-//W3C//DTD SVG 20010904//EN"
 "http://www.w3.org/TR/2001/REC-SVG-20010904/DTD/svg10.dtd">
<svg version="1.0" xmlns="http://www.w3.org/2000/svg"
 width="300.000000pt" height="300.000000pt" viewBox="0 0 300.000000 300.000000"
 preserveAspectRatio="xMidYMid meet">
<metadata>
Created by potrace 1.11, written by Peter Selinger 2001-2013
</metadata>
<g transform="translate(0.000000,300.000000) scale(0.100000,-0.100000)"
fill="#000000" stroke="none">
<path d="M0 2558 l0 -442 323 319 c177 175 378 374 447 442 l125 123 -448 0
-447 0 0 -442z"/>
<path d="M2556 2555 c240 -245 439 -445 441 -445 1 0 3 200 3 445 l0 445 -441
0 -441 0 438 -445z"/>
<path d="M1880 2731 c-121 -37 -212 -144 -248 -291 -32 -130 -23 -334 19 -446
43 -115 124 -198 222 -226 61 -17 174 -14 234 6 61 20 142 89 178 151 62 105
86 355 50 511 -46 197 -172 305 -353 303 -42 0 -88 -4 -102 -8z m182 -142 c14
-8 -1 -46 -115 -289 -75 -160 -134 -274 -138 -267 -27 47 -38 258 -19 358 13
69 57 158 91 182 47 34 131 41 181 16z m107 -165 c20 -77 24 -196 12 -285 -25
-171 -88 -249 -200 -249 -45 0 -91 17 -91 34 0 19 254 555 261 550 4 -2 12
-24 18 -50z"/>
<path d="M840 2715 c-49 -14 -140 -59 -140 -70 0 -3 10 -25 22 -50 16 -32 27
-45 38 -41 8 2 33 12 55 20 25 9 75 15 131 16 78 0 96 -3 124 -22 98 -67 89
-180 -25 -328 -41 -52 -200 -211 -292 -293 l-43 -37 0 -75 0 -75 300 0 300 0
0 65 0 65 -201 0 -200 0 113 113 c131 130 198 216 242 307 71 149 16 313 -128
388 -43 21 -67 26 -146 29 -63 2 -113 -2 -150 -12z"/>
<path d="M861 1288 c-146 -56 -231 -228 -231 -468 0 -315 132 -490 370 -490
240 0 370 172 370 490 0 247 -83 412 -233 469 -78 29 -200 28 -276 -1z m192
-119 c20 -5 37 -14 37 -18 0 -16 -254 -551 -261 -551 -16 0 -24 79 -24 230 1
137 3 162 24 212 44 112 121 156 224 127z m133 -170 c18 -67 20 -253 4 -335
-18 -92 -56 -154 -110 -181 -51 -27 -96 -29 -146 -8 -28 12 -33 18 -26 32 5
10 64 138 133 285 68 146 125 265 127 263 2 -2 10 -27 18 -56z"/>
<path d="M1940 1301 c-125 -40 -213 -148 -246 -300 -7 -36 -14 -118 -14 -181
0 -63 7 -145 14 -181 27 -126 97 -228 190 -277 46 -25 61 -27 161 -27 129 0
173 15 243 84 174 169 175 627 3 798 -68 67 -120 88 -231 90 -52 1 -106 -1
-120 -6z m161 -132 c19 -7 35 -13 37 -14 4 -3 -248 -547 -258 -559 -15 -16
-34 109 -34 224 0 207 42 310 141 346 47 16 71 17 114 3z m140 -214 c14 -86 7
-272 -14 -338 -34 -108 -87 -152 -184 -152 -110 0 -111 -6 21 278 149 318 146
313 156 296 5 -7 14 -45 21 -84z"/>
<path d="M0 440 l0 -440 431 0 432 0 -44 48 c-23 26 -217 224 -431 440 l-388
392 0 -440z"/>
<path d="M2556 434 l-440 -434 442 0 442 0 0 435 c0 239 -1 435 -2 434 -2 0
-201 -196 -442 -435z"/>
</g>
</svg>
