<svg width="768" height="1341" viewBox="0 0 768 1341" fill="none" xmlns="http://www.w3.org/2000/svg">
<g clip-path="url(#clip0_60_49328)">
<rect width="768" height="1341" fill="#40B8F4"/>
<g clip-path="url(#clip1_60_49328)">
<path d="M591.393 466.421L775.696 119.799L1122.32 304.102L591.393 466.421Z" fill="#40B8F4"/>
<path d="M60.4668 628.739L244.764 282.117L591.392 466.421L60.4668 628.739Z" fill="#40B8F4"/>
<path d="M244.77 282.118L429.067 -64.5039L775.695 119.8L244.77 282.118Z" fill="#A683AD"/>
<path d="M959.999 -226.824L775.696 119.798L429.067 -64.5054L959.999 -226.824Z" fill="#D2AAD0"/>
<path d="M429.067 -64.5039L244.764 282.118L-101.858 97.815L429.067 -64.5039Z" fill="#D2AAD0"/>
<path d="M775.695 119.799L591.392 466.421L244.77 282.118L775.695 119.799Z" fill="#D2AAD0"/>
<path d="M-286.162 444.435L-101.859 97.8125L244.764 282.116L-286.162 444.435Z" fill="#A683AD"/>
<path d="M244.764 282.117L60.4665 628.739L-286.162 444.436L244.764 282.117Z" fill="#D2AAD0"/>
<path d="M407.089 813.044L591.392 466.422L938.015 650.725L407.089 813.044Z" fill="#A683AD"/>
<path d="M1122.32 304.102L938.015 650.724L591.393 466.42L1122.32 304.102Z" fill="#D2AAD0"/>
<path d="M591.393 466.422L407.09 813.044L60.4609 628.741L591.393 466.422Z" fill="#D2AAD0"/>
<path d="M-123.836 975.361L60.4611 628.738L407.09 813.042L-123.836 975.361Z" fill="#A683AD"/>
<path d="M-101.858 97.8137L82.445 -248.809L429.067 -64.5052L-101.858 97.8137Z" fill="#40B8F4"/>
<path d="M82.4451 -248.809L-101.858 97.8137L-448.48 -86.4898L82.4451 -248.809Z" fill="#40B8F4"/>
<path d="M753.711 997.347L938.014 650.725L1284.64 835.022L753.711 997.347Z" fill="#40B8F4"/>
<path d="M222.785 1159.67L407.089 813.043L753.711 997.346L222.785 1159.67Z" fill="#40B8F4"/>
<path d="M938.015 650.725L753.711 997.347L407.089 813.043L938.015 650.725Z" fill="#D2AAD0"/>
<path d="M407.09 813.043L222.786 1159.67L-123.836 975.362L407.09 813.043Z" fill="#D2AAD0"/>
</g>
<g clip-path="url(#clip2_60_49328)">
<path d="M244.77 1623.12L429.067 1276.5L775.695 1460.8L244.77 1623.12Z" fill="#A683AD"/>
<path d="M959.999 1114.18L775.696 1460.8L429.067 1276.49L959.999 1114.18Z" fill="#D2AAD0"/>
<path d="M429.067 1276.5L244.764 1623.12L-101.858 1438.81L429.067 1276.5Z" fill="#D2AAD0"/>
<path d="M429.074 1276.5L613.371 929.873L960 1114.18L429.074 1276.5Z" fill="#40B8F4"/>
<path d="M-101.858 1438.81L82.445 1092.19L429.067 1276.49L-101.858 1438.81Z" fill="#40B8F4"/>
<path d="M613.371 929.873L429.074 1276.5L82.4453 1092.19L613.371 929.873Z" fill="#40B8F4"/>
<path d="M82.4451 1092.19L-101.858 1438.81L-448.48 1254.51L82.4451 1092.19Z" fill="#40B8F4"/>
</g>
</g>
<defs>
<clipPath id="clip0_60_49328">
<rect width="768" height="1341" fill="white"/>
</clipPath>
<clipPath id="clip1_60_49328">
<rect width="768" height="1341" fill="white" transform="translate(0 -169)"/>
</clipPath>
<clipPath id="clip2_60_49328">
<rect width="768" height="1341" fill="white" transform="translate(0 1172)"/>
</clipPath>
</defs>
</svg>
